<svg width="33" height="33" viewBox="0 0 33 33" fill="none" xmlns="http://www.w3.org/2000/svg">
<path d="M16.1936 32.3873C7.26491 32.3873 0 25.1237 0 16.1936C0 7.26355 7.26491 0 16.1936 0C25.1224 0 32.3873 7.26491 32.3873 16.1936C32.3873 25.1224 25.1224 32.3873 16.1936 32.3873ZM16.1936 1.62193C8.15832 1.62193 1.62193 8.15832 1.62193 16.1936C1.62193 24.229 8.15832 30.7654 16.1936 30.7654C24.229 30.7654 30.7654 24.229 30.7654 16.1936C30.7654 8.15832 24.229 1.62193 16.1936 1.62193Z" fill="#F57F43"/>
<path d="M13.554 25.851L17.425 25.8713C17.425 25.8713 17.452 20.5283 17.475 16.1937L20.3485 16.2086L20.7215 12.3389L17.6453 12.3227L17.6534 10.7751C17.6574 10.0209 18.1602 9.84791 18.513 9.84926C18.8671 9.85062 20.685 9.86008 20.685 9.86008L20.7013 6.54323L17.7115 6.51619C14.392 6.49997 13.6256 8.96937 13.6175 10.5521L13.608 12.3011L11.6887 12.2916L11.6685 16.1626L13.604 16.1721C13.581 20.5581 13.554 25.8496 13.554 25.8496V25.851Z" fill="white"/>
</svg>
