<svg width="33" height="33" viewBox="0 0 33 33" fill="none" xmlns="http://www.w3.org/2000/svg">
<path d="M16.5809 32.3873C7.65219 32.3873 0.387283 25.1237 0.387283 16.1936C0.387283 7.26355 7.65219 0 16.5809 0C25.5097 0 32.7746 7.26491 32.7746 16.1936C32.7746 25.1224 25.5097 32.3873 16.5809 32.3873ZM16.5809 1.62193C8.5456 1.62193 2.00922 8.15832 2.00922 16.1936C2.00922 24.229 8.5456 30.7654 16.5809 30.7654C24.6162 30.7654 31.1526 24.229 31.1526 16.1936C31.1526 8.15832 24.6162 1.62193 16.5809 1.62193Z" fill="#F57F43"/>
<path d="M21.4521 24.7859H11.7097C9.69177 24.7859 8.05091 23.1816 8.05091 21.2109V11.1793C8.05091 9.20726 9.69177 7.60425 11.7097 7.60425H21.4521C23.4701 7.60425 25.1109 9.20861 25.1109 11.1793V21.2109C25.1109 23.1829 23.4701 24.7859 21.4521 24.7859ZM11.7111 9.0748C10.5054 9.0748 9.52417 10.0182 9.52417 11.1779V21.2096C9.52417 22.3692 10.5054 23.3127 11.7111 23.3127H21.4535C22.6591 23.3127 23.639 22.3692 23.639 21.2096V11.1779C23.639 10.0182 22.6578 9.0748 21.4535 9.0748H11.7111Z" fill="white"/>
<path d="M16.5809 20.654C14.1223 20.654 12.122 18.6536 12.122 16.1937C12.122 13.7338 14.1223 11.7334 16.5809 11.7334C19.0395 11.7334 21.0412 13.7338 21.0412 16.1937C21.0412 18.6536 19.0408 20.654 16.5809 20.654ZM16.5809 13.2067C14.9333 13.2067 13.5939 14.5461 13.5939 16.1937C13.5939 17.8413 14.9333 19.1808 16.5809 19.1808C18.2285 19.1808 19.568 17.8413 19.568 16.1937C19.568 14.5461 18.2285 13.2067 16.5809 13.2067Z" fill="white"/>
<path d="M22.4104 11.5102C22.4104 12.086 21.9441 12.5537 21.367 12.5537C20.7898 12.5537 20.3235 12.086 20.3235 11.5102C20.3235 10.9345 20.7898 10.4668 21.367 10.4668C21.9441 10.4668 22.4104 10.9345 22.4104 11.5102Z" fill="white"/>
</svg>
