<svg width="34" height="33" viewBox="0 0 34 33" fill="none" xmlns="http://www.w3.org/2000/svg">
<path d="M16.9682 32.3873C8.03947 32.3873 0.774567 25.1237 0.774567 16.1936C0.774567 7.26355 8.03947 0 16.9682 0C25.8969 0 33.1618 7.26491 33.1618 16.1936C33.1618 25.1224 25.8969 32.3873 16.9682 32.3873ZM16.9682 1.62193C8.93289 1.62193 2.3965 8.15832 2.3965 16.1936C2.3965 24.229 8.93289 30.7654 16.9682 30.7654C25.0035 30.7654 31.5399 24.229 31.5399 16.1936C31.5399 8.15832 25.0035 1.62193 16.9682 1.62193Z" fill="#F57F43"/>
<path d="M21.9435 11.2793L11.9889 11.2834C10.8508 11.2834 9.92903 12.2065 9.93038 13.3459L9.93308 19.0484C9.93308 20.1864 10.8562 21.1096 11.9929 21.1082L21.9475 21.1042C23.0856 21.1042 24.006 20.1797 24.006 19.0416L24.0033 13.3392C24.0033 12.2011 23.0802 11.2779 21.9435 11.2793ZM14.8962 18.6834L14.8935 13.4202L19.9377 16.0491L14.8948 18.6834H14.8962Z" fill="white"/>
</svg>
